<mxfile host="app.diagrams.net" modified="2022-04-25T03:18:53.429Z" agent="5.0 (Windows NT 10.0; Win64; x64) AppleWebKit/537.36 (KHTML, like Gecko) Chrome/100.0.4896.88 Safari/537.36" etag="X7HsHS9X3ZKJyFGUsjn_" version="17.4.6" type="github">
  <diagram id="Tqv-xgq0oBXDb1eSAF5G" name="Page-1">
    <mxGraphModel dx="1422" dy="738" grid="1" gridSize="10" guides="1" tooltips="1" connect="1" arrows="1" fold="1" page="1" pageScale="1" pageWidth="827" pageHeight="1169" math="0" shadow="0">
      <root>
        <mxCell id="0" />
        <mxCell id="1" parent="0" />
        <mxCell id="5KL64Bzqj7dQWfPiXda_-27" value="" style="rounded=1;whiteSpace=wrap;html=1;fontSize=16;strokeWidth=1;dashed=1;fontStyle=0" parent="1" vertex="1">
          <mxGeometry x="402.5" y="180" width="157.5" height="330" as="geometry" />
        </mxCell>
        <mxCell id="5KL64Bzqj7dQWfPiXda_-74" style="edgeStyle=orthogonalEdgeStyle;rounded=1;orthogonalLoop=1;jettySize=auto;html=1;exitX=1;exitY=0.5;exitDx=0;exitDy=0;fontFamily=Times New Roman;fontSize=16;strokeWidth=1;entryX=0;entryY=0.5;entryDx=0;entryDy=0;fontStyle=0;jumpStyle=none;fillColor=#e1d5e7;strokeColor=#9673a6;" parent="1" source="5KL64Bzqj7dQWfPiXda_-24" target="5KL64Bzqj7dQWfPiXda_-73" edge="1">
          <mxGeometry relative="1" as="geometry">
            <Array as="points">
              <mxPoint x="570" y="215" />
              <mxPoint x="570" y="280" />
            </Array>
          </mxGeometry>
        </mxCell>
        <mxCell id="5KL64Bzqj7dQWfPiXda_-24" value="&lt;span style=&quot;font-size: 16px&quot;&gt;人物&lt;br&gt;实体集合&lt;/span&gt;" style="rounded=1;whiteSpace=wrap;html=1;fontSize=16;strokeWidth=1;fontStyle=0;fillColor=#e1d5e7;strokeColor=#9673a6;" parent="1" vertex="1">
          <mxGeometry x="430" y="190" width="110" height="50" as="geometry" />
        </mxCell>
        <mxCell id="5KL64Bzqj7dQWfPiXda_-75" style="edgeStyle=orthogonalEdgeStyle;rounded=0;orthogonalLoop=1;jettySize=auto;html=1;exitX=1;exitY=0.5;exitDx=0;exitDy=0;entryX=0;entryY=0.5;entryDx=0;entryDy=0;fontFamily=Times New Roman;fontSize=16;strokeWidth=1;fontStyle=0;fillColor=#e1d5e7;strokeColor=#9673a6;" parent="1" source="5KL64Bzqj7dQWfPiXda_-25" target="5KL64Bzqj7dQWfPiXda_-73" edge="1">
          <mxGeometry relative="1" as="geometry" />
        </mxCell>
        <mxCell id="5KL64Bzqj7dQWfPiXda_-25" value="&lt;span style=&quot;font-size: 16px&quot;&gt;事件&lt;br&gt;实体集合&lt;br style=&quot;font-size: 16px&quot;&gt;&lt;/span&gt;" style="rounded=1;whiteSpace=wrap;html=1;fontSize=16;strokeWidth=1;fontStyle=0;fillColor=#e1d5e7;strokeColor=#9673a6;" parent="1" vertex="1">
          <mxGeometry x="430" y="255" width="110" height="50" as="geometry" />
        </mxCell>
        <mxCell id="5KL64Bzqj7dQWfPiXda_-76" style="edgeStyle=orthogonalEdgeStyle;rounded=1;orthogonalLoop=1;jettySize=auto;html=1;exitX=1;exitY=0.5;exitDx=0;exitDy=0;entryX=0;entryY=0.5;entryDx=0;entryDy=0;fontFamily=Times New Roman;fontSize=16;strokeWidth=1;fontStyle=0;fillColor=#e1d5e7;strokeColor=#9673a6;" parent="1" source="5KL64Bzqj7dQWfPiXda_-26" target="5KL64Bzqj7dQWfPiXda_-73" edge="1">
          <mxGeometry relative="1" as="geometry">
            <Array as="points">
              <mxPoint x="570" y="345" />
              <mxPoint x="570" y="280" />
            </Array>
          </mxGeometry>
        </mxCell>
        <mxCell id="5KL64Bzqj7dQWfPiXda_-26" value="&lt;span style=&quot;font-size: 16px;&quot;&gt;组织机构&lt;br style=&quot;font-size: 16px;&quot;&gt;实体集合&lt;/span&gt;" style="rounded=1;whiteSpace=wrap;html=1;fontSize=16;strokeWidth=1;fontStyle=0;fillColor=#e1d5e7;strokeColor=#9673a6;" parent="1" vertex="1">
          <mxGeometry x="430" y="320" width="110" height="50" as="geometry" />
        </mxCell>
        <mxCell id="5KL64Bzqj7dQWfPiXda_-34" value="" style="ellipse;whiteSpace=wrap;html=1;aspect=fixed;rounded=1;fontSize=16;strokeWidth=1;fontStyle=0;fillColor=none;strokeColor=#82b366;" parent="1" vertex="1">
          <mxGeometry x="140" y="270" width="185" height="185" as="geometry" />
        </mxCell>
        <mxCell id="5KL64Bzqj7dQWfPiXda_-60" style="edgeStyle=orthogonalEdgeStyle;rounded=0;orthogonalLoop=1;jettySize=auto;html=1;exitX=0.5;exitY=1;exitDx=0;exitDy=0;entryX=0.5;entryY=0;entryDx=0;entryDy=0;fontFamily=Times New Roman;fontSize=16;strokeWidth=1;fontStyle=0;fillColor=#d5e8d4;strokeColor=#82b366;" parent="1" source="5KL64Bzqj7dQWfPiXda_-35" target="5KL64Bzqj7dQWfPiXda_-46" edge="1">
          <mxGeometry relative="1" as="geometry" />
        </mxCell>
        <mxCell id="5KL64Bzqj7dQWfPiXda_-35" value="" style="ellipse;whiteSpace=wrap;html=1;aspect=fixed;rounded=1;fontSize=16;strokeWidth=1;fontStyle=0;fillColor=#d5e8d4;strokeColor=#82b366;" parent="1" vertex="1">
          <mxGeometry x="170" y="330" width="125" height="125" as="geometry" />
        </mxCell>
        <mxCell id="5KL64Bzqj7dQWfPiXda_-36" value="&lt;span style=&quot;font-size: 16px;&quot;&gt;文献&lt;br style=&quot;font-size: 16px;&quot;&gt;图书&lt;/span&gt;" style="text;html=1;strokeColor=none;fillColor=none;align=center;verticalAlign=middle;whiteSpace=wrap;rounded=0;fontSize=16;strokeWidth=1;fontStyle=0" parent="1" vertex="1">
          <mxGeometry x="202.5" y="290" width="60" height="30" as="geometry" />
        </mxCell>
        <mxCell id="5KL64Bzqj7dQWfPiXda_-38" value="&lt;span style=&quot;font-size: 16px;&quot;&gt;段落&lt;br style=&quot;font-size: 16px;&quot;&gt;单元&lt;/span&gt;" style="text;html=1;strokeColor=none;fillColor=none;align=center;verticalAlign=middle;whiteSpace=wrap;rounded=0;fontSize=16;strokeWidth=1;fontStyle=0" parent="1" vertex="1">
          <mxGeometry x="202.5" y="377.5" width="60" height="30" as="geometry" />
        </mxCell>
        <mxCell id="5KL64Bzqj7dQWfPiXda_-64" style="edgeStyle=orthogonalEdgeStyle;rounded=1;orthogonalLoop=1;jettySize=auto;html=1;exitX=1;exitY=0.5;exitDx=0;exitDy=0;fontFamily=Times New Roman;fontSize=16;entryX=0;entryY=0.5;entryDx=0;entryDy=0;strokeWidth=1;fontStyle=0;fillColor=#dae8fc;strokeColor=#6c8ebf;" parent="1" target="5KL64Bzqj7dQWfPiXda_-59" edge="1" source="5KL64Bzqj7dQWfPiXda_-43">
          <mxGeometry relative="1" as="geometry">
            <mxPoint x="654" y="440" as="targetPoint" />
            <mxPoint x="521.5" y="475" as="sourcePoint" />
            <Array as="points">
              <mxPoint x="570" y="478" />
              <mxPoint x="570" y="440" />
            </Array>
          </mxGeometry>
        </mxCell>
        <mxCell id="5KL64Bzqj7dQWfPiXda_-43" value="&lt;span style=&quot;font-size: 16px;&quot;&gt;&lt;font face=&quot;Times New Roman&quot; style=&quot;font-size: 16px;&quot;&gt;地点&lt;br style=&quot;font-size: 16px;&quot;&gt;(LOCATION)&lt;/font&gt;&lt;br style=&quot;font-size: 16px;&quot;&gt;&lt;/span&gt;" style="rounded=1;whiteSpace=wrap;html=1;fontSize=16;strokeWidth=1;fontStyle=0;fillColor=#dae8fc;strokeColor=#6c8ebf;" parent="1" vertex="1">
          <mxGeometry x="428.75" y="455" width="111.25" height="45" as="geometry" />
        </mxCell>
        <mxCell id="5KL64Bzqj7dQWfPiXda_-50" value="" style="edgeStyle=orthogonalEdgeStyle;rounded=0;orthogonalLoop=1;jettySize=auto;html=1;fontSize=16;strokeWidth=1;fontStyle=0;fillColor=#ffe6cc;strokeColor=#d79b00;" parent="1" source="5KL64Bzqj7dQWfPiXda_-46" target="5KL64Bzqj7dQWfPiXda_-49" edge="1">
          <mxGeometry relative="1" as="geometry" />
        </mxCell>
        <mxCell id="5KL64Bzqj7dQWfPiXda_-52" value="" style="edgeStyle=orthogonalEdgeStyle;rounded=0;orthogonalLoop=1;jettySize=auto;html=1;fontSize=16;strokeWidth=1;fontStyle=0;fillColor=#ffe6cc;strokeColor=#d79b00;" parent="1" source="5KL64Bzqj7dQWfPiXda_-46" target="5KL64Bzqj7dQWfPiXda_-51" edge="1">
          <mxGeometry relative="1" as="geometry" />
        </mxCell>
        <mxCell id="5KL64Bzqj7dQWfPiXda_-46" value="是否有时间实体" style="rhombus;whiteSpace=wrap;html=1;fontSize=16;rounded=1;strokeWidth=1;fontStyle=0;fillColor=#ffe6cc;strokeColor=#d79b00;" parent="1" vertex="1">
          <mxGeometry x="157.5" y="545" width="150" height="80" as="geometry" />
        </mxCell>
        <mxCell id="5KL64Bzqj7dQWfPiXda_-49" value="舍弃该段落单元" style="ellipse;whiteSpace=wrap;html=1;fontSize=16;rounded=0;strokeWidth=1;fontStyle=0;fillColor=#fff2cc;strokeColor=#d6b656;" parent="1" vertex="1">
          <mxGeometry x="172.5" y="680" width="120" height="60" as="geometry" />
        </mxCell>
        <mxCell id="5KL64Bzqj7dQWfPiXda_-53" style="edgeStyle=orthogonalEdgeStyle;rounded=0;orthogonalLoop=1;jettySize=auto;html=1;exitX=0.5;exitY=0;exitDx=0;exitDy=0;fontFamily=Times New Roman;fontSize=16;strokeWidth=1;fontStyle=0;fillColor=#d5e8d4;strokeColor=#82b366;" parent="1" source="5KL64Bzqj7dQWfPiXda_-51" target="5KL64Bzqj7dQWfPiXda_-27" edge="1">
          <mxGeometry relative="1" as="geometry" />
        </mxCell>
        <mxCell id="5KL64Bzqj7dQWfPiXda_-62" style="edgeStyle=orthogonalEdgeStyle;rounded=0;orthogonalLoop=1;jettySize=auto;html=1;exitX=1;exitY=0.5;exitDx=0;exitDy=0;entryX=0;entryY=0.5;entryDx=0;entryDy=0;fontFamily=Times New Roman;fontSize=16;strokeWidth=1;fontStyle=0;fillColor=#d5e8d4;strokeColor=#82b366;" parent="1" source="5KL64Bzqj7dQWfPiXda_-51" target="5KL64Bzqj7dQWfPiXda_-54" edge="1">
          <mxGeometry relative="1" as="geometry" />
        </mxCell>
        <mxCell id="5KL64Bzqj7dQWfPiXda_-51" value="&lt;font face=&quot;Times New Roman&quot; style=&quot;font-size: 16px;&quot;&gt;子事件（&lt;span lang=&quot;EN-US&quot; style=&quot;font-size: 16px;&quot;&gt;EVENT_DESCRIPTION&lt;/span&gt;）&lt;/font&gt;" style="whiteSpace=wrap;html=1;fontSize=16;rounded=1;strokeWidth=1;fontStyle=0;fillColor=#d5e8d4;strokeColor=#82b366;" parent="1" vertex="1">
          <mxGeometry x="358.75" y="555" width="247.5" height="60" as="geometry" />
        </mxCell>
        <mxCell id="5KL64Bzqj7dQWfPiXda_-65" style="edgeStyle=orthogonalEdgeStyle;rounded=0;orthogonalLoop=1;jettySize=auto;html=1;exitX=0.5;exitY=0;exitDx=0;exitDy=0;entryX=0.5;entryY=1;entryDx=0;entryDy=0;fontFamily=Times New Roman;fontSize=16;strokeWidth=1;fontStyle=0;fillColor=#d5e8d4;strokeColor=#82b366;" parent="1" source="5KL64Bzqj7dQWfPiXda_-54" target="5KL64Bzqj7dQWfPiXda_-59" edge="1">
          <mxGeometry relative="1" as="geometry" />
        </mxCell>
        <mxCell id="5KL64Bzqj7dQWfPiXda_-54" value="&lt;font face=&quot;Times New Roman&quot; style=&quot;font-size: 16px;&quot;&gt;子事件命名（&lt;span lang=&quot;EN-US&quot; style=&quot;font-size: 16px;&quot;&gt;EVENT_NAME&lt;/span&gt;）&lt;/font&gt;" style="whiteSpace=wrap;html=1;fontSize=16;rounded=1;strokeWidth=1;fontStyle=0;fillColor=#d5e8d4;strokeColor=#82b366;" parent="1" vertex="1">
          <mxGeometry x="885" y="555" width="160" height="60" as="geometry" />
        </mxCell>
        <mxCell id="5KL64Bzqj7dQWfPiXda_-78" style="edgeStyle=orthogonalEdgeStyle;rounded=0;orthogonalLoop=1;jettySize=auto;html=1;exitX=0.5;exitY=0;exitDx=0;exitDy=0;entryX=0.5;entryY=1;entryDx=0;entryDy=0;fontFamily=Times New Roman;fontSize=16;strokeWidth=1;fontStyle=0;fillColor=#d5e8d4;strokeColor=#82b366;" parent="1" source="5KL64Bzqj7dQWfPiXda_-59" target="5KL64Bzqj7dQWfPiXda_-77" edge="1">
          <mxGeometry relative="1" as="geometry" />
        </mxCell>
        <mxCell id="5KL64Bzqj7dQWfPiXda_-59" value="&lt;font face=&quot;Times New Roman&quot; style=&quot;font-size: 16px;&quot;&gt;&lt;span style=&quot;font-size: 16px;&quot;&gt;时空知识单元四元组&lt;br style=&quot;font-size: 16px;&quot;&gt;&lt;span lang=&quot;EN-US&quot; style=&quot;font-size: 16px;&quot;&gt;&amp;lt;TIME,LOCATION,EVENT_NAME,EVENT_DESCRIPTION&amp;gt;&lt;/span&gt;&lt;/span&gt;&lt;/font&gt;&lt;span style=&quot;font-size: 16px;&quot;&gt;&lt;br style=&quot;font-size: 16px;&quot;&gt;&lt;/span&gt;" style="rounded=1;whiteSpace=wrap;html=1;fontSize=16;strokeWidth=1;fontStyle=0;fillColor=#d5e8d4;strokeColor=#82b366;" parent="1" vertex="1">
          <mxGeometry x="730" y="407.5" width="470" height="65" as="geometry" />
        </mxCell>
        <mxCell id="5KL64Bzqj7dQWfPiXda_-63" style="edgeStyle=orthogonalEdgeStyle;rounded=1;orthogonalLoop=1;jettySize=auto;html=1;exitX=1;exitY=0.5;exitDx=0;exitDy=0;entryX=0;entryY=0.5;entryDx=0;entryDy=0;fontFamily=Times New Roman;fontSize=16;strokeWidth=1;fontStyle=0;fillColor=#dae8fc;strokeColor=#6c8ebf;" parent="1" source="5KL64Bzqj7dQWfPiXda_-61" target="5KL64Bzqj7dQWfPiXda_-59" edge="1">
          <mxGeometry relative="1" as="geometry">
            <Array as="points">
              <mxPoint x="570" y="415" />
              <mxPoint x="570" y="440" />
            </Array>
          </mxGeometry>
        </mxCell>
        <mxCell id="5KL64Bzqj7dQWfPiXda_-61" value="&lt;span style=&quot;font-size: 16px&quot;&gt;&lt;font face=&quot;Times New Roman&quot; style=&quot;font-size: 16px&quot;&gt;时间&lt;br&gt;（TIME）&lt;/font&gt;&lt;/span&gt;" style="rounded=1;whiteSpace=wrap;html=1;fontSize=16;strokeWidth=1;fontStyle=0;fillColor=#dae8fc;strokeColor=#6c8ebf;" parent="1" vertex="1">
          <mxGeometry x="430" y="390" width="110" height="50" as="geometry" />
        </mxCell>
        <mxCell id="5KL64Bzqj7dQWfPiXda_-83" style="edgeStyle=orthogonalEdgeStyle;rounded=0;orthogonalLoop=1;jettySize=auto;html=1;exitX=1;exitY=0.5;exitDx=0;exitDy=0;entryX=0;entryY=0.5;entryDx=0;entryDy=0;fontFamily=Times New Roman;fontSize=16;strokeWidth=1;fontStyle=0;fillColor=#e1d5e7;strokeColor=#9673a6;" parent="1" source="5KL64Bzqj7dQWfPiXda_-73" target="5KL64Bzqj7dQWfPiXda_-77" edge="1">
          <mxGeometry relative="1" as="geometry" />
        </mxCell>
        <mxCell id="5KL64Bzqj7dQWfPiXda_-73" value="&lt;span style=&quot;font-size: 16px;&quot;&gt;&lt;font face=&quot;Times New Roman&quot; style=&quot;font-size: 16px;&quot;&gt;实体对象集合（SUBJECTS）&lt;/font&gt;&lt;br style=&quot;font-size: 16px;&quot;&gt;&lt;/span&gt;" style="rounded=1;whiteSpace=wrap;html=1;fontSize=16;strokeWidth=1;fontStyle=0;fillColor=#e1d5e7;strokeColor=#9673a6;" parent="1" vertex="1">
          <mxGeometry x="590" y="255" width="120" height="50" as="geometry" />
        </mxCell>
        <mxCell id="5KL64Bzqj7dQWfPiXda_-77" value="&lt;font face=&quot;Times New Roman&quot; style=&quot;font-size: 16px;&quot;&gt;&lt;span style=&quot;font-size: 16px;&quot;&gt;时空知识模型单元&lt;br style=&quot;font-size: 16px;&quot;&gt;&lt;br style=&quot;font-size: 16px;&quot;&gt;&amp;lt;&lt;/span&gt;&lt;/font&gt;&lt;span style=&quot;font-family: &amp;quot;times new roman&amp;quot;; font-size: 16px;&quot;&gt;SUBJECT, &quot;&lt;/span&gt;&lt;span style=&quot;font-family: &amp;quot;times new roman&amp;quot;; font-size: 16px;&quot;&gt;子事件&lt;/span&gt;&lt;span style=&quot;font-family: &amp;quot;times new roman&amp;quot;; font-size: 16px;&quot;&gt;&quot;,&amp;nbsp;&lt;/span&gt;&lt;span style=&quot;font-family: &amp;quot;times new roman&amp;quot;; font-size: 16px;&quot;&gt;&lt;span lang=&quot;EN-US&quot; style=&quot;font-size: 16px;&quot;&gt;EVENT_NAME&amp;gt;&lt;br style=&quot;font-size: 16px;&quot;&gt;&lt;/span&gt;&lt;/span&gt;&lt;font face=&quot;Times New Roman&quot; style=&quot;font-size: 16px;&quot;&gt;&lt;span style=&quot;font-size: 16px;&quot;&gt;&amp;lt;&lt;/span&gt;&lt;/font&gt;&lt;span style=&quot;font-family: &amp;quot;times new roman&amp;quot;; font-size: 16px;&quot;&gt;&lt;span lang=&quot;EN-US&quot; style=&quot;font-size: 16px;&quot;&gt;EVENT_NAME, &quot;&lt;/span&gt;&lt;/span&gt;&lt;span style=&quot;font-family: &amp;quot;times new roman&amp;quot;; font-size: 16px;&quot;&gt;&lt;span lang=&quot;EN-US&quot; style=&quot;font-size: 16px;&quot;&gt;时间&lt;/span&gt;&lt;/span&gt;&lt;span style=&quot;font-family: &amp;quot;times new roman&amp;quot;; font-size: 16px;&quot;&gt;&lt;span lang=&quot;EN-US&quot; style=&quot;font-size: 16px;&quot;&gt;&quot;, TIME&lt;/span&gt;&lt;/span&gt;&lt;font face=&quot;Times New Roman&quot; style=&quot;font-size: 16px;&quot;&gt;&lt;span style=&quot;font-size: 16px;&quot;&gt;&amp;gt;&lt;br style=&quot;font-size: 16px;&quot;&gt;&amp;lt;&lt;/span&gt;&lt;/font&gt;&lt;span style=&quot;font-family: &amp;quot;times new roman&amp;quot;; font-size: 16px;&quot;&gt;&lt;span lang=&quot;EN-US&quot; style=&quot;font-size: 16px;&quot;&gt;EVENT_NAME, &quot;&lt;/span&gt;&lt;/span&gt;&lt;span style=&quot;font-family: &amp;quot;times new roman&amp;quot;; font-size: 16px;&quot;&gt;&lt;span lang=&quot;EN-US&quot; style=&quot;font-size: 16px;&quot;&gt;地点&lt;/span&gt;&lt;/span&gt;&lt;span style=&quot;font-family: &amp;quot;times new roman&amp;quot;; font-size: 16px;&quot;&gt;&lt;span lang=&quot;EN-US&quot; style=&quot;font-size: 16px;&quot;&gt;&quot;, LOCATION&amp;gt;&lt;/span&gt;&lt;/span&gt;&lt;font face=&quot;Times New Roman&quot; style=&quot;font-size: 16px;&quot;&gt;&lt;span style=&quot;font-size: 16px;&quot;&gt;&lt;br style=&quot;font-size: 16px;&quot;&gt;&lt;/span&gt;&lt;/font&gt;&lt;font face=&quot;Times New Roman&quot; style=&quot;font-size: 16px;&quot;&gt;&lt;span style=&quot;font-size: 16px;&quot;&gt;&amp;lt;&lt;/span&gt;&lt;/font&gt;&lt;span style=&quot;font-family: &amp;quot;times new roman&amp;quot;; font-size: 16px;&quot;&gt;&lt;span lang=&quot;EN-US&quot; style=&quot;font-size: 16px;&quot;&gt;EVENT_NAME, comment,&amp;nbsp;&lt;/span&gt;&lt;/span&gt;&lt;span style=&quot;font-family: &amp;quot;times new roman&amp;quot;; font-size: 16px;&quot;&gt;&lt;span lang=&quot;EN-US&quot; style=&quot;font-size: 16px;&quot;&gt;EVENT_DESCRIPTION&lt;/span&gt;&lt;/span&gt;&lt;span style=&quot;font-family: &amp;quot;times new roman&amp;quot;; font-size: 16px;&quot;&gt;&lt;span lang=&quot;EN-US&quot; style=&quot;font-size: 16px;&quot;&gt;&amp;gt;&lt;/span&gt;&lt;/span&gt;&lt;span style=&quot;font-size: 16px;&quot;&gt;&lt;br style=&quot;font-size: 16px;&quot;&gt;&lt;/span&gt;" style="rounded=1;whiteSpace=wrap;html=1;fontSize=16;strokeWidth=1;fontStyle=0;fillColor=#f8cecc;strokeColor=#b85450;" parent="1" vertex="1">
          <mxGeometry x="730" y="213.75" width="470" height="132.5" as="geometry" />
        </mxCell>
        <mxCell id="5KL64Bzqj7dQWfPiXda_-79" value="&lt;span style=&quot;font-size: 16px;&quot;&gt;N&lt;/span&gt;" style="text;html=1;align=center;verticalAlign=middle;resizable=0;points=[];autosize=1;strokeColor=#d79b00;fillColor=#ffe6cc;fontSize=16;fontFamily=Times New Roman;strokeWidth=1;fontStyle=0" parent="1" vertex="1">
          <mxGeometry x="227.5" y="640" width="30" height="20" as="geometry" />
        </mxCell>
        <mxCell id="5KL64Bzqj7dQWfPiXda_-80" value="&lt;span style=&quot;font-size: 16px;&quot;&gt;Y&lt;/span&gt;" style="text;html=1;align=center;verticalAlign=middle;resizable=0;points=[];autosize=1;strokeColor=#d79b00;fillColor=#ffe6cc;fontSize=16;fontFamily=Times New Roman;strokeWidth=1;fontStyle=0" parent="1" vertex="1">
          <mxGeometry x="307.5" y="565" width="30" height="20" as="geometry" />
        </mxCell>
        <mxCell id="5KL64Bzqj7dQWfPiXda_-81" value="&lt;span style=&quot;font-size: 16px&quot;&gt;命名实体识别（Ner）&lt;/span&gt;" style="text;html=1;align=center;verticalAlign=middle;resizable=0;points=[];autosize=1;strokeColor=none;fillColor=none;fontSize=16;fontFamily=Times New Roman;strokeWidth=1;fontStyle=0" parent="1" vertex="1">
          <mxGeometry x="475" y="525" width="170" height="20" as="geometry" />
        </mxCell>
        <mxCell id="5KL64Bzqj7dQWfPiXda_-82" value="&lt;span style=&quot;font-size: 16px;&quot;&gt;子事件摘要抽取&lt;/span&gt;" style="text;html=1;align=center;verticalAlign=middle;resizable=0;points=[];autosize=1;strokeColor=none;fillColor=none;fontSize=16;fontFamily=Times New Roman;strokeWidth=1;fontStyle=0" parent="1" vertex="1">
          <mxGeometry x="655" y="590" width="130" height="20" as="geometry" />
        </mxCell>
        <mxCell id="5KL64Bzqj7dQWfPiXda_-84" value="" style="shape=curlyBracket;whiteSpace=wrap;html=1;rounded=1;flipH=1;fontFamily=Times New Roman;fontSize=16;fillColor=default;rotation=90;strokeWidth=1;fontStyle=0" parent="1" vertex="1">
          <mxGeometry x="640" y="260" width="20" height="120" as="geometry" />
        </mxCell>
        <mxCell id="5KL64Bzqj7dQWfPiXda_-87" value="N个实体对象&lt;br style=&quot;font-size: 16px;&quot;&gt;（N* SUBJECT）" style="text;html=1;align=center;verticalAlign=middle;resizable=0;points=[];autosize=1;strokeColor=none;fillColor=none;fontSize=16;fontFamily=Times New Roman;strokeWidth=1;fontStyle=0" parent="1" vertex="1">
          <mxGeometry x="580" y="330" width="140" height="40" as="geometry" />
        </mxCell>
        <mxCell id="5KL64Bzqj7dQWfPiXda_-88" value="&lt;span style=&quot;font-size: 16px;&quot;&gt;重组&lt;/span&gt;" style="text;html=1;align=center;verticalAlign=middle;resizable=0;points=[];autosize=1;strokeColor=none;fillColor=none;fontSize=16;fontFamily=Times New Roman;strokeWidth=1;fontStyle=0" parent="1" vertex="1">
          <mxGeometry x="960" y="370" width="50" height="20" as="geometry" />
        </mxCell>
      </root>
    </mxGraphModel>
  </diagram>
</mxfile>
